<svg width="60" height="40" viewBox="0 0 60 40" fill="none" xmlns="http://www.w3.org/2000/svg">
<rect x="0.5" y="0.5" width="59" height="39" rx="2.5" fill="#1F72CD" stroke="#D5DFFF"/>
<path fill-rule="evenodd" clip-rule="evenodd" d="M10.6137 14L5 26.423H11.7204L12.5536 24.4422H14.4579L15.2911 26.423H22.6883V24.9112L23.3475 26.423H27.1739L27.8331 24.8793V26.423H43.2174L45.0881 24.4937L46.8397 26.423L54.7414 26.439L49.11 20.2462L54.7414 14H46.9623L45.1413 15.8936L43.4448 14H26.7087L25.2715 17.2065L23.8007 14H17.0943V15.4603L16.3483 14H10.6137ZM33.5871 15.7641H42.4215L45.1236 18.6828L47.9127 15.7641H50.6147L46.5093 20.2444L50.6147 24.6731H47.7901L45.0881 21.7205L42.2847 24.6731H33.5871V15.7641ZM35.7687 19.2371V17.6098V17.6082H41.2811L43.6864 20.2107L41.1746 22.8274H35.7687V21.0509H40.5883V19.2371H35.7687ZM11.9141 15.7641H15.1899L18.9135 24.1882V15.7641H22.5021L25.3781 21.8041L28.0287 15.7641H31.5993V24.6784H29.4267L29.409 17.6932L26.2414 24.6784H24.2979L21.1127 17.6932V24.6784H16.643L15.7957 22.6799H11.2177L10.3721 24.6766H7.97735L11.9141 15.7641ZM11.9994 20.8325L13.5077 17.2723L15.0142 20.8325H11.9994Z" fill="white"/>
</svg>
