<svg width="74" height="24" viewBox="0 0 74 24" fill="none" xmlns="http://www.w3.org/2000/svg">
<path d="M15.8535 2.52795L14.0851 4.35395C14.0579 4.33845 14.0319 4.32105 14.0072 4.30189C11.4299 1.97208 7.60787 1.92844 5.02251 4.23149C3.49885 5.58816 2.76091 7.3313 2.79251 9.35714C2.83551 12.1072 4.09346 14.1554 6.56344 15.4024C8.09555 16.1761 9.72394 16.2567 11.3777 15.8325C12.5559 15.5304 13.5801 14.9598 14.3688 14.016C15.0692 13.1778 15.4268 12.1999 15.536 11.1234C15.5389 11.0937 15.536 11.0636 15.536 11.0068H9.48764V8.47237H9.71328C12.4129 8.47237 15.1125 8.47091 17.8119 8.46797C17.9982 8.46797 18.0633 8.52151 18.0868 8.70301C18.4374 11.405 17.9247 13.873 16.0552 15.9458C14.8252 17.3102 13.2541 18.0927 11.4615 18.4359C9.84007 18.7461 8.23115 18.6764 6.6509 18.1891C3.05087 17.0795 0.432423 13.9313 0.0509573 10.1957C-0.229446 7.44937 0.655128 5.06236 2.51321 3.04898C4.43708 0.966307 6.84678 -0.0676978 9.69711 0.00343584C11.9021 0.0595361 13.8635 0.792139 15.5437 2.23461C15.6455 2.32151 15.7385 2.41795 15.8535 2.52795Z" fill="black"/>
<path d="M45.7455 20.471L48.0432 19.5118C48.0939 19.6126 48.1372 19.6981 48.1806 19.7839C49.0586 21.5094 51.1279 22.1672 52.7813 21.2403C53.703 20.7233 54.1359 19.8873 54.2381 18.8756C54.2921 18.3436 54.2664 17.8035 54.2749 17.267C54.2704 17.246 54.2629 17.2257 54.2524 17.2069C54.2265 17.2247 54.2019 17.2444 54.1789 17.2659C53.2455 18.3201 52.0445 18.689 50.6781 18.5984C48.3886 18.447 46.3486 16.83 45.5963 14.5911C44.6563 11.7927 45.8437 8.71084 48.4434 7.30577C49.8457 6.5475 51.3227 6.399 52.8346 6.99337C53.3186 7.18367 53.7354 7.48287 54.1076 7.84404C54.1503 7.88547 54.1947 7.92544 54.2726 7.99767V7.0117H56.7794C56.7841 7.07 56.7915 7.1173 56.7915 7.1646C56.7915 10.7946 56.7974 14.4246 56.7819 18.0547C56.7768 19.2467 56.535 20.3962 55.9308 21.4438C55.0856 22.9104 53.7776 23.6922 52.1272 23.9246C50.7652 24.1168 49.4507 23.9554 48.2368 23.2646C47.1027 22.6167 46.3199 21.6553 45.7455 20.471ZM54.4773 12.6342C54.4796 12.1165 54.4072 11.6105 54.2127 11.1309C53.7405 9.96375 52.9136 9.18751 51.6402 9.02361C50.3955 8.86374 49.3845 9.35581 48.6378 10.3484C47.6848 11.6149 47.6823 13.5974 48.601 14.8877C49.7983 16.5671 52.1841 16.7339 53.5571 15.228C54.2238 14.4939 54.4729 13.6051 54.4773 12.6342Z" fill="black"/>
<path d="M25.3651 6.63477C27.2353 6.71763 29.0427 7.53274 30.2161 9.43501C31.911 12.1806 31.2484 16.7123 27.2394 18.2204C24.64 19.1976 21.2837 18.3744 19.7512 15.4942C18.0901 12.3724 19.3444 8.50697 22.6328 7.11143C23.3685 6.80013 24.1854 6.64063 25.3651 6.63477ZM25.0825 8.98878C23.9969 8.98878 23.0278 9.44931 22.3931 10.3245C21.5516 11.4851 21.4376 12.7666 21.9345 14.0818C22.8264 16.4384 25.833 17.0115 27.5154 15.1587C28.3687 14.2186 28.5896 13.0881 28.3863 11.8638C28.1078 10.1874 26.7219 8.98878 25.0825 8.98988V8.98878Z" fill="black"/>
<path d="M32.1422 12.578C32.1382 9.25046 34.7743 6.64565 38.1667 6.63795C41.1893 6.63172 44.1893 8.77636 44.1937 12.6088C44.1962 16.0096 41.6006 18.6093 38.2034 18.6038C34.7662 18.5983 32.1466 15.9942 32.1422 12.578ZM41.587 12.4617C41.5502 12.2458 41.5234 11.8575 41.4168 11.4926C41.0512 10.2434 40.2504 9.38796 38.9674 9.0862C37.6845 8.78443 36.5603 9.13936 35.6754 10.1246C34.5361 11.3914 34.4707 13.4873 35.4986 14.8986C36.5199 16.3033 38.4893 16.6814 39.9479 15.7365C41.0721 15.0097 41.5407 13.9292 41.5855 12.4617H41.587Z" fill="black"/>
<path d="M65.3554 14.4338C65.9919 15.7365 67.0381 16.2425 68.2219 16.2543C69.5287 16.2675 70.5081 15.6889 71.2258 14.6083L73.3143 15.9947C73.0453 16.2928 72.7998 16.5883 72.5312 16.8589C70.1336 19.2668 66.1367 19.1876 63.8633 16.6847C63.0754 15.8183 62.6226 14.7887 62.4606 13.6381C62.25 12.1516 62.4492 10.7301 63.1956 9.40821C64.5608 6.9882 67.5798 5.95639 70.0597 7.06703C71.3945 7.66507 72.3133 8.67634 72.9079 9.99415C73.0707 10.3549 73.2199 10.722 73.3856 11.111L65.3554 14.4338ZM64.8916 12.405L64.9603 12.4347L70.3258 10.1958C70.1843 10.0081 70.0785 9.83465 69.941 9.69091C69.353 9.07711 68.614 8.85308 67.7875 8.95171C66.4509 9.11084 65.255 10.2222 64.9776 11.5433C64.9191 11.8242 64.9188 12.1175 64.8916 12.405Z" fill="black"/>
<path d="M58.5576 0.621338H61.1742V18.2394H58.5576V0.621338Z" fill="black"/>
</svg>
