<svg width="131" height="24" viewBox="0 0 131 24" fill="none" xmlns="http://www.w3.org/2000/svg">
<mask id="mask0_2095_62862" style="mask-type:alpha" maskUnits="userSpaceOnUse" x="0" y="0" width="131" height="24">
<rect width="130.737" height="24" fill="#D9D9D9"/>
</mask>
<g mask="url(#mask0_2095_62862)">
<path d="M11.9532 9.08823C12.1628 9.49662 12.2553 9.9112 12.2306 10.3443C12.2121 10.7713 12.1011 11.4705 11.8915 12.4358L10.541 18.8154H7.64899L9.0426 12.2068C9.16593 11.6252 9.1721 11.1487 9.05494 10.7899C8.90078 10.2825 8.46296 10.0288 7.74149 10.0288C7.02002 10.0288 6.37255 10.2825 5.87307 10.7899C5.37975 11.2911 5.0406 12.0027 4.83711 12.9308L3.59149 18.8154H0.773438L3.87515 4.17516H6.69937L5.59558 9.37286C6.13822 8.74171 6.70553 8.30238 7.29751 8.05487C7.89565 7.80118 8.48763 7.67742 9.08577 7.67742C9.75791 7.67742 10.3376 7.79499 10.837 8.02393C11.318 8.24051 11.7127 8.61796 11.9593 9.08823H11.9532ZM21.1596 13.4073C21.3939 12.3182 21.3446 11.4767 21.0178 10.895C20.6971 10.301 20.1298 10.0102 19.2974 10.0102C18.4649 10.0102 17.7681 10.3072 17.2008 10.895C16.6335 11.4767 16.2326 12.3182 15.9983 13.4073C15.764 14.4963 15.8072 15.3378 16.1278 15.9319C16.4546 16.5259 17.0281 16.8167 17.8544 16.8167C18.6807 16.8167 19.3837 16.5197 19.951 15.9319C20.5183 15.344 20.9191 14.4963 21.1535 13.4073H21.1596ZM17.3611 19.199C15.4988 19.199 14.2347 18.6359 13.5564 17.5036C12.8904 16.365 12.724 15.0037 13.0569 13.4073C13.3899 11.8418 14.1361 10.4805 15.2954 9.32955C16.4546 8.17863 17.9654 7.60317 19.8277 7.60317C21.6899 7.60317 22.954 8.17863 23.62 9.32955C24.286 10.4805 24.4586 11.8356 24.1257 13.4073C23.7865 15.0037 23.0404 16.3712 21.8811 17.5036C20.728 18.6359 19.2234 19.199 17.3611 19.199ZM27.3445 15.3502C27.2952 15.8576 27.3569 16.2165 27.511 16.4269C27.7762 16.8043 28.3805 16.9962 29.3301 16.9962C29.8851 16.9962 30.3476 16.9095 30.7114 16.7486C31.0752 16.5816 31.291 16.3341 31.365 15.9999C31.4329 15.6782 31.3465 15.4368 31.1184 15.2698C30.8841 15.1027 29.9653 14.8181 28.3497 14.4097C27.1904 14.1065 26.4072 13.7228 26.0064 13.265C25.5933 12.8132 25.4823 12.1635 25.6673 11.3096C25.8769 10.3072 26.4504 9.44711 27.3877 8.72934C28.3312 8.00537 29.5089 7.64029 30.9334 7.64029C32.3578 7.64029 33.326 7.91255 34.0659 8.45708C34.7997 8.99541 35.0957 9.92976 34.9416 11.2601H32.1112C32.142 10.895 32.0988 10.6042 31.9817 10.3938C31.7474 10.0102 31.2602 9.81838 30.5141 9.81838C29.8974 9.81838 29.4411 9.9112 29.1328 10.1092C28.8368 10.301 28.658 10.53 28.6086 10.7899C28.5347 11.1178 28.6271 11.3529 28.88 11.4953C29.1266 11.65 30.0516 11.9098 31.661 12.2811C32.7278 12.5472 33.4863 12.9494 33.9364 13.4877C34.3804 14.0322 34.5161 14.7129 34.3434 15.5297C34.1091 16.6063 33.5233 17.485 32.586 18.1718C31.6425 18.8463 30.3414 19.1866 28.6703 19.1866C26.9992 19.1866 25.7844 18.8277 25.1246 18.11C24.471 17.386 24.2552 16.464 24.4895 15.3502H27.363H27.3445ZM35.8665 10.0783L36.292 8.05487H37.8028L38.4503 5.02288H41.2498L40.6023 8.05487H42.3598L41.9343 10.0783H40.1768L38.9559 15.8205C38.8634 16.266 38.8634 16.5445 38.9436 16.6558C39.0361 16.761 39.369 16.8167 39.9487 16.8167H40.22L40.516 16.7982L40.0597 18.9205L38.7092 18.97C37.365 19.0196 36.5017 18.7844 36.1132 18.2708C35.8665 17.9429 35.8172 17.4417 35.9529 16.7672L37.3711 10.0783H35.8604H35.8665ZM49.519 13.265C48.9825 13.4753 48.4213 13.6177 47.8479 13.6919C47.3114 13.76 46.7749 13.8157 46.2384 13.8528C45.2888 13.9209 44.5057 14.1312 43.9014 14.4839C43.3032 14.8366 42.9332 15.375 42.7791 16.0989C42.7113 16.4269 42.7174 16.7115 42.7976 16.959C42.8777 17.188 43.0072 17.386 43.1861 17.5531C43.3772 17.7016 43.5992 17.8191 43.8582 17.8996C44.1172 17.9676 44.3885 18.0048 44.6722 18.0048C45.1593 18.0048 45.6465 17.9429 46.1151 17.8191C46.5899 17.7016 47.0401 17.5159 47.4594 17.2684C47.8725 17.0147 48.2364 16.693 48.5385 16.3093C48.8345 15.9133 49.0442 15.4492 49.1675 14.9233L49.5128 13.2711L49.519 13.265ZM47.5827 12.6524C47.8109 12.6276 48.0884 12.5843 48.4152 12.5286C48.7543 12.4729 49.038 12.3987 49.2723 12.3059C49.5066 12.213 49.6608 12.0522 49.741 11.8356C49.8335 11.6066 49.9013 11.3901 49.9445 11.2044C50.0123 10.8889 50.0246 10.6042 49.9876 10.3443C49.9506 10.0906 49.8335 9.85551 49.6608 9.66987C49.5005 9.47805 49.26 9.32955 48.9517 9.21817C48.6557 9.10679 48.2672 9.05729 47.7924 9.05729C46.9537 9.05729 46.2199 9.22436 45.591 9.56468C44.962 9.90501 44.5057 10.53 44.2097 11.4458H42.9702C43.1491 10.8208 43.3957 10.2886 43.7225 9.85551C44.0432 9.42236 44.444 9.05729 44.9003 8.77265C45.3505 8.48801 45.8438 8.27763 46.3679 8.16006C46.9106 8.02393 47.4656 7.95587 48.039 7.95587C48.5693 7.95587 49.0503 8.01775 49.482 8.1415C49.9321 8.25288 50.2959 8.43232 50.5796 8.69221C50.8756 8.93972 51.0791 9.27386 51.1901 9.69462C51.3011 10.1154 51.2949 10.6352 51.1716 11.2477L49.9506 17.0085C49.8396 17.485 49.8581 17.7882 49.9938 17.9305C50.1418 18.0543 50.4933 18.0171 51.0544 17.8253L50.8509 18.7844C50.7584 18.8092 50.6043 18.8525 50.4008 18.9082C50.2219 18.9639 50.0369 18.9886 49.852 18.9886C49.6731 18.9886 49.5005 18.97 49.3217 18.9267C48.927 18.8587 48.705 18.673 48.6495 18.376C48.594 18.0357 48.6002 17.6892 48.668 17.355C48.0329 17.9243 47.3484 18.3637 46.6146 18.6607C45.9054 18.9577 45.147 19.1124 44.3762 19.1124C43.9384 19.1124 43.4944 19.0505 43.0751 18.9267C42.7051 18.8154 42.3598 18.6235 42.0761 18.3575C41.8048 18.1038 41.6075 17.7758 41.5088 17.4169C41.3978 17.0333 41.3978 16.5878 41.5088 16.068C41.8726 14.2736 43.3279 13.2093 45.8623 12.8813L47.5889 12.6586L47.5827 12.6524ZM60.9885 13.4877C61.1118 12.8875 61.1427 12.3244 61.0933 11.7923C61.0502 11.2477 60.9207 10.7775 60.7049 10.3815C60.4952 9.97926 60.1807 9.65131 59.7861 9.42236C59.4037 9.17485 58.9351 9.05729 58.3801 9.05729C57.745 9.05729 57.1653 9.18723 56.6474 9.44711C56.1294 9.69462 55.6669 10.0411 55.2846 10.4681C54.8776 10.9198 54.5508 11.4396 54.3103 11.9965C54.0451 12.5905 53.8601 13.2154 53.7615 13.8528C53.6258 14.5211 53.5888 15.1151 53.6566 15.6287C53.7368 16.1299 53.9033 16.563 54.1438 16.9157C54.3843 17.2684 54.7173 17.5469 55.0996 17.7325C55.5066 17.9119 55.969 17.9986 56.4809 17.9986C57.0482 17.9986 57.5785 17.881 58.0656 17.6521C58.5589 17.4231 59.0091 17.1075 59.3852 16.7115C59.7861 16.2908 60.119 15.8081 60.3595 15.2822C60.6309 14.7253 60.8344 14.125 60.97 13.4877H60.9885ZM62.9803 4.11328H64.2012L61.0872 18.8154H59.8662L60.2547 16.959H60.2115C59.9649 17.3117 59.6751 17.6273 59.3359 17.8996C58.9968 18.1595 58.6453 18.376 58.2753 18.5555C57.9176 18.7287 57.5415 18.8649 57.153 18.9639C56.8077 19.0567 56.45 19.1062 56.0924 19.1062C55.2352 19.1062 54.5384 18.9639 53.9958 18.6792C53.4531 18.3946 53.0462 18.0048 52.7748 17.5159C52.5035 17.0147 52.3494 16.4207 52.3062 15.74C52.2815 15.0594 52.3494 14.3292 52.5097 13.5558C52.67 12.8194 52.9167 12.114 53.2435 11.4334C53.5518 10.7775 53.965 10.1773 54.4644 9.6575C54.9578 9.14392 55.5436 8.72934 56.1972 8.43232C56.8632 8.11675 57.597 7.96206 58.3925 7.96206C59.1386 7.96206 59.8169 8.13531 60.4274 8.46945C61.0502 8.7974 61.488 9.28623 61.7285 9.94213L62.9679 4.12566L62.9803 4.11328ZM64.4725 8.24051H65.7922L67.2968 17.3055L72.6307 8.24051H73.9503L67.6236 18.8154H66.2608L64.4725 8.24051ZM72.5382 18.8154L74.7766 8.24051H75.9976L73.7592 18.8154H72.5382ZM75.2021 5.93248L75.5906 4.11328H76.9349L76.5464 5.93248H75.2021ZM85.0437 11.5695C85.0005 10.7775 84.7662 10.1649 84.3346 9.73175C83.9029 9.28005 83.2739 9.05729 82.46 9.05729C81.8372 9.05729 81.2699 9.18723 80.7704 9.44711C80.2647 9.707 79.8207 10.0597 79.4508 10.4867C79.0623 10.9198 78.7478 11.4086 78.5135 11.9346C78.273 12.4544 78.088 12.9927 77.9647 13.5496C77.8475 14.0879 77.792 14.6324 77.8043 15.1832C77.829 15.7153 77.94 16.1918 78.1311 16.6125C78.3346 17.0333 78.6306 17.3736 79.0253 17.6335C79.4199 17.881 79.9317 17.9986 80.5731 17.9986C81.4795 17.9986 82.2626 17.7449 82.9101 17.2437C83.5761 16.7425 84.0694 16.0432 84.3962 15.1584H85.6973C85.4754 15.7277 85.1917 16.266 84.8402 16.7734C84.5072 17.2437 84.1126 17.6644 83.6624 18.0171C83.2061 18.3637 82.7005 18.6297 82.1578 18.8154C81.6028 19.0072 80.9924 19.1 80.3264 19.1C79.4878 19.1 78.7848 18.9577 78.2298 18.673C77.6872 18.3884 77.2679 17.9986 76.9657 17.5097C76.682 17.0085 76.5155 16.4145 76.4786 15.7339C76.4416 15.0532 76.4971 14.3231 76.6635 13.5496C76.8115 12.8132 77.0644 12.1078 77.4158 11.4458C77.755 10.7837 78.1928 10.1773 78.717 9.65131C79.2288 9.13773 79.8269 8.72315 80.4867 8.42614C81.1774 8.11056 81.9235 7.94968 82.682 7.95587C83.9029 7.95587 84.8279 8.24669 85.4507 8.83453C86.0858 9.42236 86.3695 10.332 86.2832 11.5695H85.0437ZM95.4526 12.7947C95.5636 12.2749 95.5883 11.7923 95.5328 11.3468C95.4896 10.8827 95.3725 10.4867 95.169 10.1649C94.9655 9.82457 94.6757 9.55849 94.2933 9.36667C93.911 9.16248 93.4547 9.06347 92.9121 9.06347C92.3694 9.06347 91.8699 9.16248 91.4074 9.36667C90.9573 9.57087 90.5503 9.84313 90.1865 10.1835C89.8165 10.53 89.4897 10.9322 89.2307 11.3653C88.9594 11.817 88.7436 12.2935 88.5771 12.7947H95.4526ZM88.3489 13.8157C88.2318 14.354 88.1886 14.9047 88.2256 15.4492C88.2688 15.9504 88.3921 16.3959 88.6141 16.7796C88.8361 17.1509 89.1505 17.4602 89.5329 17.6768C89.9398 17.8934 90.4332 18.0048 91.019 18.0048C91.8206 18.0048 92.5482 17.7944 93.1957 17.3736C93.8617 16.9528 94.3673 16.3526 94.725 15.5792H96.0878C95.8349 16.0742 95.5328 16.5506 95.1936 16.99C94.8668 17.4169 94.4845 17.7944 94.0528 18.1161C93.6027 18.4379 93.1094 18.6854 92.5852 18.8525C92.0426 19.0319 91.4383 19.1186 90.7723 19.1186C89.9337 19.1186 89.2307 18.9762 88.6757 18.6916C88.1331 18.407 87.7138 18.0171 87.4116 17.5283C87.128 17.0271 86.9615 16.4393 86.9245 15.771C86.8813 15.0903 86.943 14.3602 87.1095 13.5867C87.2698 12.8256 87.5349 12.0893 87.9049 11.4024C88.2502 10.7465 88.7004 10.1463 89.2307 9.62656C89.7425 9.11916 90.3407 8.71077 91.0005 8.41995C91.6726 8.11675 92.4002 7.96824 93.134 7.96824C94.5832 7.96824 95.6191 8.46945 96.2296 9.47805C96.8524 10.4743 96.9572 11.9222 96.5317 13.828H88.3489V13.8157ZM97.6417 18.8215L98.0302 17.0271H99.5163L99.1278 18.8215H97.6417Z" fill="#222426"/>
</g>
</svg>
