<svg width="60" height="40" viewBox="0 0 60 40" fill="none" xmlns="http://www.w3.org/2000/svg">
<rect x="0.5" y="0.5" width="59" height="39" rx="2.5" fill="white" stroke="#D5DFFF"/>
<g clip-path="url(#clip0_180_620)">
<path d="M49 28.8714C48.9981 30.403 48.3918 31.8713 47.3142 32.954C46.2365 34.0367 44.7756 34.6455 43.252 34.6466H12V11.7752C12.0023 10.2443 12.6083 8.77664 13.6852 7.69407C14.7622 6.61151 16.2221 6.00231 17.7451 6H49V28.8714Z" fill="white"/>
<path d="M38.8236 23.012H41.1983C41.2662 23.012 41.4237 22.9887 41.4873 22.9887C41.7289 22.9369 41.9448 22.8018 42.0976 22.6067C42.2505 22.4117 42.3306 22.169 42.3242 21.9208C42.3235 21.6743 42.2407 21.435 42.089 21.2412C41.9374 21.0474 41.7255 20.9102 41.4873 20.8515C41.3921 20.8329 41.2951 20.8256 41.1983 20.8297H38.8236V23.012Z" fill="url(#paint0_linear_180_620)"/>
<path d="M40.9265 7.93237C39.8349 7.93276 38.7881 8.36883 38.0163 9.14474C37.2444 9.92065 36.8106 10.9729 36.8102 12.0702V16.3678H42.6233C42.759 16.3636 42.8949 16.3709 43.0294 16.3896C44.3418 16.4579 45.3145 17.1408 45.3145 18.322C45.3145 19.2547 44.6583 20.0509 43.4355 20.2107V20.2558C44.7696 20.3473 45.7871 21.097 45.7871 22.2564C45.7871 23.5073 44.6568 24.3253 43.1638 24.3253H36.7871V32.7375H42.8256C43.9173 32.7375 44.9643 32.3016 45.7363 31.5256C46.5082 30.7496 46.9419 29.6971 46.9419 28.5997V7.93237H40.9265Z" fill="url(#paint1_linear_180_620)"/>
<path d="M42.0351 18.595C42.0396 18.3571 41.9568 18.1259 41.8024 17.9455C41.648 17.7652 41.4329 17.6483 41.1983 17.6173C41.152 17.6173 41.0393 17.5955 40.9713 17.5955H38.8236V19.5961H40.9713C41.0478 19.6024 41.1247 19.5946 41.1983 19.5728C41.4329 19.5418 41.648 19.4249 41.8024 19.2446C41.9568 19.0642 42.0396 18.8329 42.0351 18.595Z" fill="url(#paint2_linear_180_620)"/>
<path d="M18.1744 7.93237C17.0826 7.93237 16.0355 8.36827 15.2633 9.14423C14.4911 9.92018 14.0571 10.9726 14.0567 12.0702V22.2855C15.213 22.8535 16.4097 23.2182 17.6079 23.2182C19.0329 23.2182 19.8019 22.3465 19.8019 21.1711V16.3519H23.3313V21.1464C23.3313 23.0105 22.1751 24.5331 18.2655 24.5331C16.8398 24.534 15.4194 24.3584 14.0365 24.01V32.7187H20.075C20.6158 32.7185 21.1513 32.6112 21.6508 32.4029C22.1503 32.1946 22.6041 31.8893 22.9862 31.5047C23.3684 31.12 23.6714 30.6634 23.8779 30.161C24.0844 29.6585 24.1904 29.1201 24.1898 28.5765V7.93237H18.1744Z" fill="url(#paint3_linear_180_620)"/>
<path d="M29.5505 7.93237C28.4589 7.93276 27.4121 8.36883 26.6402 9.14474C25.8684 9.92065 25.4346 10.9729 25.4342 12.0702V17.4808C26.4748 16.5945 28.2844 16.0279 31.201 16.163C32.2918 16.2326 33.3743 16.3998 34.4356 16.6628V18.4063C33.47 17.8874 32.4071 17.5776 31.3152 17.4967C29.0981 17.3384 27.764 18.4295 27.764 20.3386C27.764 22.2709 29.0981 23.3621 31.3152 23.1804C32.4042 23.0937 33.465 22.7895 34.4356 22.2855V24.0289C33.3748 24.2943 32.2921 24.4616 31.201 24.5287C28.2844 24.6653 26.4748 24.0929 25.4342 23.211V32.7593H31.4727C32.0135 32.7595 32.5489 32.6527 33.0486 32.4448C33.5483 32.237 34.0023 31.9322 34.3848 31.548C34.7673 31.1638 35.0708 30.7076 35.2779 30.2054C35.485 29.7033 35.5917 29.1651 35.5919 28.6215V7.93237H29.5505Z" fill="url(#paint4_linear_180_620)"/>
</g>
<defs>
<linearGradient id="paint0_linear_180_620" x1="36.9227" y1="22.0485" x2="47.0868" y2="22.0485" gradientUnits="userSpaceOnUse">
<stop stop-color="#007940"/>
<stop offset="0.23" stop-color="#00873F"/>
<stop offset="0.74" stop-color="#40A737"/>
<stop offset="1" stop-color="#5CB531"/>
</linearGradient>
<linearGradient id="paint1_linear_180_620" x1="-121039" y1="-2.07901e+06" x2="-120326" y2="-2.07901e+06" gradientUnits="userSpaceOnUse">
<stop stop-color="#007940"/>
<stop offset="0.23" stop-color="#00873F"/>
<stop offset="0.74" stop-color="#40A737"/>
<stop offset="1" stop-color="#5CB531"/>
</linearGradient>
<linearGradient id="paint2_linear_180_620" x1="-10962.9" y1="-12232" x2="-10736.7" y2="-12232" gradientUnits="userSpaceOnUse">
<stop stop-color="#007940"/>
<stop offset="0.23" stop-color="#00873F"/>
<stop offset="0.74" stop-color="#40A737"/>
<stop offset="1" stop-color="#5CB531"/>
</linearGradient>
<linearGradient id="paint3_linear_180_620" x1="14.0679" y1="20.4357" x2="24.3242" y2="20.4357" gradientUnits="userSpaceOnUse">
<stop stop-color="#1F286F"/>
<stop offset="0.48" stop-color="#004E94"/>
<stop offset="0.83" stop-color="#0066B1"/>
<stop offset="1" stop-color="#006FBC"/>
</linearGradient>
<linearGradient id="paint4_linear_180_620" x1="25.364" y1="19.9686" x2="35.4172" y2="19.9686" gradientUnits="userSpaceOnUse">
<stop stop-color="#6C2C2F"/>
<stop offset="0.17" stop-color="#882730"/>
<stop offset="0.57" stop-color="#BE1833"/>
<stop offset="0.86" stop-color="#DC0436"/>
<stop offset="1" stop-color="#E60039"/>
</linearGradient>
<clipPath id="clip0_180_620">
<rect width="37" height="28.6452" fill="white" transform="translate(12 6)"/>
</clipPath>
</defs>
</svg>
