<svg data-v-4b4728e8="" data-v-1e64738f="" xmlns="http://www.w3.org/2000/svg" viewBox="0 0 147 30" aria-label="hostinger-logo" role="presentation" class="h-icon-dark" style="width: 147px; height: 30px;"><g data-v-4b4728e8=""><g data-v-4b4728e8=""><path fill-rule="evenodd" clip-rule="evenodd" d="M62.065 17.6549C62.3745 16.86 62.5299 15.9376 62.5299 14.8891C62.5299 13.8401 62.3721 12.9178 62.0559 12.1227C61.74 11.327 61.3067 10.6582 60.7568 10.1161C60.2067 9.5741 59.563 9.16774 58.8258 8.8966C58.0881 8.6252 57.3041 8.4895 56.4733 8.4895C55.6657 8.4895 54.8959 8.6252 54.1648 8.8966C53.433 9.16774 52.7891 9.5741 52.2336 10.1161C51.6776 10.6582 51.2354 11.327 50.908 12.1227C50.5802 12.9178 50.4163 13.8401 50.4163 14.8891C50.4163 15.9376 50.5746 16.86 50.8905 17.6549C51.2067 18.4506 51.6393 19.1164 52.1896 19.6523C52.7395 20.1889 53.3834 20.5923 54.1209 20.8632C54.8583 21.1346 55.6421 21.2701 56.4733 21.2701C57.3274 21.2701 58.1264 21.1346 58.8695 20.8632C59.6126 20.5923 60.2536 20.1889 60.7919 19.6523C61.33 19.1164 61.7544 18.4506 62.065 17.6549ZM53.4622 16.515C53.3159 16.0317 53.243 15.4897 53.243 14.889C53.243 14.2998 53.3159 13.7607 53.4622 13.2713C53.6085 12.7824 53.8194 12.3642 54.0946 12.0167C54.3691 11.6689 54.7059 11.3977 55.104 11.2032C55.5017 11.0089 55.9581 10.9118 56.4733 10.9118C56.9763 10.9118 57.43 11.006 57.8341 11.1946C58.2374 11.3827 58.5772 11.6511 58.8518 11.9986C59.1268 12.3466 59.3379 12.7646 59.4842 13.2535C59.6305 13.7427 59.7037 14.2877 59.7037 14.889C59.7037 15.4897 59.6305 16.0317 59.4842 16.515C59.3379 16.9984 59.1268 17.4137 58.8518 17.7612C58.5772 18.1092 58.2374 18.3769 57.8341 18.5653C57.43 18.7543 56.9763 18.8488 56.4733 18.8488C55.9581 18.8488 55.5017 18.7543 55.104 18.5653C54.7059 18.3769 54.3691 18.1092 54.0946 17.7612C53.8194 17.4137 53.6085 16.9984 53.4622 16.515Z"/> <path d="M69.4166 18.9192C69.8027 18.9192 70.1216 18.8871 70.3732 18.8218C70.6249 18.7573 70.8269 18.6691 70.9788 18.5564C71.1308 18.4449 71.2364 18.3124 71.295 18.1591C71.3537 18.0061 71.3829 17.8351 71.3829 17.6465C71.3829 17.2461 71.1954 16.9127 70.821 16.6479C70.4464 16.3825 69.8027 16.097 68.89 15.79C68.4918 15.6491 68.0939 15.4867 67.696 15.3043C67.2981 15.1219 66.9411 14.892 66.6252 14.6149C66.3095 14.3381 66.0517 14.0022 65.8529 13.607C65.6538 13.2125 65.5544 12.7325 65.5544 12.1667C65.5544 11.6009 65.6597 11.0912 65.8703 10.6377C66.0812 10.1839 66.3794 9.79828 66.7658 9.47968C67.152 9.16132 67.6199 8.91736 68.17 8.74607C68.7201 8.57552 69.3402 8.4895 70.031 8.4895C70.8502 8.4895 71.5584 8.57848 72.1555 8.75497C72.752 8.93169 73.2437 9.12647 73.6298 9.33854L72.8401 11.5127C72.5004 11.3359 72.1228 11.1797 71.7077 11.044C71.2921 10.9088 70.7918 10.8406 70.2068 10.8406C69.5511 10.8406 69.08 10.9326 68.7933 11.115C68.5066 11.2976 68.363 11.5777 68.363 11.9544C68.363 12.1786 68.416 12.3674 68.5213 12.5201C68.6264 12.6734 68.7759 12.8118 68.9688 12.9356C69.162 13.0592 69.3844 13.1714 69.6363 13.2713C69.8874 13.3717 70.1656 13.4745 70.4702 13.5805C71.1018 13.8166 71.652 14.0492 72.1203 14.279C72.5882 14.5089 72.9776 14.7771 73.2879 15.0833C73.5977 15.3896 73.8289 15.7492 73.9814 16.1617C74.1331 16.5745 74.2094 17.075 74.2094 17.6638C74.2094 18.807 73.8112 19.6938 73.0154 20.3241C72.2195 20.9549 71.0198 21.2703 69.4166 21.2703C68.8782 21.2703 68.3924 21.2377 67.9594 21.1729C67.5264 21.1077 67.1432 21.0283 66.8095 20.9342C66.4762 20.84 66.1892 20.7399 65.9491 20.6338C65.7093 20.5276 65.5075 20.4277 65.3435 20.333L66.1163 18.1414C66.4786 18.3421 66.9264 18.5215 67.4593 18.6802C67.9915 18.8396 68.6443 18.9192 69.4166 18.9192Z"/> <path d="M86.2751 8.77295V11.1241H82.6059V21.0226H79.8673V11.1241H76.1978V8.77295H86.2751Z"/> <path d="M89.3171 21.0228H92.056V8.77295H89.3171V21.0228Z"/> <path d="M104.315 21.0226C103.531 19.6204 102.683 18.236 101.77 16.8686C100.856 15.5015 99.8849 14.2112 98.8554 12.9974V21.0226H96.1516V8.77295H98.3811C98.767 9.1615 99.1944 9.6388 99.6628 10.2046C100.131 10.7704 100.607 11.3744 101.093 12.0166C101.579 12.6588 102.062 13.3246 102.542 14.0138C103.021 14.7031 103.472 15.3658 103.894 16.0023V8.77295H106.615V21.0226H104.315Z"/> <path d="M116.644 10.8942C115.369 10.8942 114.447 11.2507 113.879 11.9635C113.312 12.6766 113.028 13.6515 113.028 14.8893C113.028 15.4897 113.098 16.0352 113.238 16.5241C113.379 17.0128 113.59 17.4339 113.87 17.7876C114.152 18.1414 114.502 18.4155 114.924 18.61C115.345 18.8043 115.836 18.9014 116.398 18.9014C116.702 18.9014 116.963 18.8955 117.18 18.8839C117.396 18.8722 117.586 18.8488 117.75 18.8132V14.5534H120.489V20.6163C120.161 20.7461 119.635 20.8842 118.909 21.0313C118.183 21.1784 117.288 21.2525 116.223 21.2525C115.31 21.2525 114.482 21.1109 113.739 20.8284C112.995 20.5451 112.361 20.1331 111.834 19.5908C111.308 19.049 110.901 18.3828 110.614 17.5934C110.327 16.8044 110.184 15.9027 110.184 14.8893C110.184 13.8638 110.342 12.9564 110.658 12.1667C110.974 11.3775 111.406 10.7081 111.957 10.1604C112.507 9.61241 113.153 9.19716 113.897 8.91439C114.64 8.63138 115.433 8.4895 116.276 8.4895C116.849 8.4895 117.367 8.52831 117.829 8.60468C118.291 8.68156 118.689 8.7698 119.023 8.87015C119.357 8.97001 119.632 9.07308 119.848 9.17936C120.065 9.2854 120.219 9.3682 120.314 9.42703L119.524 11.6363C119.149 11.436 118.719 11.2625 118.233 11.115C117.747 10.9677 117.218 10.8942 116.644 10.8942Z"/> <path d="M124.321 21.0226V8.77295H132.537V11.0885H127.06V13.4922H131.923V15.7551H127.06V18.7071H132.941V21.0226H124.321Z"/> <path fill-rule="evenodd" clip-rule="evenodd" d="M144.006 9.61238C143.035 8.95811 141.636 8.63135 139.811 8.63135C139.307 8.63135 138.737 8.65483 138.099 8.70229C137.461 8.749 136.844 8.83205 136.247 8.94921V21.0226H138.985V16.55H140.337C140.572 16.8333 140.807 17.1484 141.042 17.4964C141.277 17.844 141.516 18.2118 141.756 18.6008C141.997 18.9899 142.231 19.3908 142.461 19.8031C142.689 20.2156 142.916 20.6219 143.139 21.0226H146.2C145.99 20.575 145.762 20.1185 145.516 19.6525C145.271 19.1874 145.016 18.7397 144.753 18.3096C144.489 17.8796 144.223 17.467 143.954 17.0721C143.685 16.6773 143.427 16.3268 143.181 16.0201C143.919 15.7141 144.484 15.2924 144.875 14.7565C145.268 14.2204 145.464 13.5217 145.464 12.6617C145.464 11.2828 144.977 10.2664 144.006 9.61238ZM139.433 11C139.591 10.9884 139.769 10.9825 139.968 10.9825C140.846 10.9825 141.51 11.1093 141.961 11.3621C142.412 11.6162 142.637 12.0428 142.637 12.644C142.637 13.2688 142.415 13.711 141.97 13.9698C141.525 14.2293 140.788 14.3583 139.758 14.3583H138.985V11.0354C139.126 11.024 139.275 11.0121 139.433 11Z"/> <path d="M44.0025 8.87207H46.7577V21.0786H44.0025V15.9001H39.3754V21.0786H36.6201V8.87207H39.3754V13.5395H44.0025V8.87207Z"/> <path fill-rule="evenodd" clip-rule="evenodd" d="M17.8175 0.328857V9.05827L24.87 13.1829V3.92368L17.8175 0.328857ZM0.000244886 0.329286V14.0277H22.937L15.9584 10.1921L6.8675 10.1876V4.01584L0.000244886 0.329286ZM17.8175 25.8012V19.6826L8.65652 19.6762C8.66507 19.7169 1.56204 15.7792 1.56204 15.7792L24.8699 15.8893V29.5875L17.8175 25.8012ZM0.000244325 16.8495L0 25.8011L6.8675 29.3957V20.8765L0.000244325 16.8495Z"/></g></g></svg>