<svg width="60" height="40" viewBox="0 0 60 40" fill="none" xmlns="http://www.w3.org/2000/svg">
<rect x="0.5" y="0.5" width="59" height="39" rx="2.5" fill="white" stroke="#D5DFFF"/>
<g clip-path="url(#clip0_180_768)">
<path d="M34.6913 25.0427H26.3088V10.0396H34.6913V25.0427Z" fill="#6C6BBD"/>
<path d="M26.8409 17.5411C26.8409 14.4976 28.2716 11.7866 30.4997 10.0395C28.8704 8.76193 26.8141 7.99939 24.5793 7.99939C19.2887 7.99939 15 12.2713 15 17.5411C15 22.8109 19.2887 27.0828 24.5793 27.0828C26.8141 27.0828 28.8704 26.3202 30.4997 25.0427C28.2716 23.2956 26.8409 20.5845 26.8409 17.5411Z" fill="#D32011"/>
<path d="M46.0001 17.5411C46.0001 22.8109 41.7114 27.0828 36.4208 27.0828C34.186 27.0828 32.1297 26.3202 30.4998 25.0427C32.7284 23.2956 34.1592 20.5845 34.1592 17.5411C34.1592 14.4976 32.7284 11.7866 30.4998 10.0395C32.1297 8.76193 34.186 7.99939 36.4208 7.99939C41.7114 7.99939 46.0001 12.2713 46.0001 17.5411Z" fill="#0099DF"/>
<path d="M37.5273 29.2818C37.6388 29.2818 37.799 29.303 37.9214 29.351L37.7509 29.8702C37.6339 29.8223 37.517 29.8065 37.4049 29.8065C37.0431 29.8065 36.8622 30.0395 36.8622 30.4581V31.8788H36.3085V29.3455H36.8567V29.6531C37.0005 29.4304 37.2082 29.2818 37.5273 29.2818ZM35.482 29.849H34.5775V30.9937C34.5775 31.2479 34.6676 31.4178 34.9447 31.4178C35.0885 31.4178 35.2694 31.3698 35.4339 31.2746L35.5934 31.7459C35.418 31.8679 35.1415 31.9425 34.9021 31.9425C34.2473 31.9425 34.0189 31.5925 34.0189 31.004V29.849H33.5024V29.3455H34.0189V28.5769H34.5775V29.3455H35.482V29.849ZM28.3988 30.3895C28.4579 30.0237 28.6808 29.7744 29.0749 29.7744C29.4312 29.7744 29.6602 29.997 29.7187 30.3895H28.3988ZM30.2937 30.6121C30.2882 29.8223 29.7985 29.2818 29.0852 29.2818C28.3403 29.2818 27.8189 29.8223 27.8189 30.6121C27.8189 31.4171 28.3616 31.9419 29.123 31.9419C29.5061 31.9419 29.8569 31.8466 30.1658 31.587L29.8941 31.1787C29.6815 31.3486 29.4099 31.4438 29.1547 31.4438C28.7983 31.4438 28.4737 31.2794 28.3939 30.8239H30.2827C30.2882 30.7547 30.2937 30.6862 30.2937 30.6121ZM32.7252 29.9922C32.5711 29.8963 32.2574 29.7744 31.9328 29.7744C31.6294 29.7744 31.4485 29.886 31.4485 30.0716C31.4485 30.2409 31.6398 30.2888 31.8792 30.3204L32.1398 30.3574C32.6935 30.4374 33.0285 30.6704 33.0285 31.1156C33.0285 31.5979 32.6028 31.9425 31.8688 31.9425C31.4534 31.9425 31.0703 31.8363 30.7669 31.6137L31.0276 31.1842C31.214 31.3274 31.4912 31.4493 31.8743 31.4493C32.2519 31.4493 32.4541 31.3383 32.4541 31.1417C32.4541 30.9992 32.3104 30.9191 32.0071 30.8772L31.7464 30.8402C31.1769 30.7602 30.8681 30.506 30.8681 30.0929C30.8681 29.5894 31.2835 29.2818 31.9273 29.2818C32.3317 29.2818 32.699 29.3722 32.9646 29.5469L32.7252 29.9922ZM39.5501 29.8053C39.4362 29.8053 39.3309 29.8253 39.2328 29.8648C39.1353 29.9048 39.0507 29.9606 38.9794 30.0322C38.9082 30.1038 38.8521 30.1899 38.8113 30.29C38.7705 30.3901 38.7504 30.5005 38.7504 30.6206C38.7504 30.7414 38.7705 30.8512 38.8113 30.9513C38.8521 31.0513 38.9082 31.1375 38.9794 31.2091C39.0507 31.2807 39.1353 31.3365 39.2328 31.3765C39.3309 31.4165 39.4362 31.436 39.5501 31.436C39.664 31.436 39.77 31.4165 39.8675 31.3765C39.9655 31.3365 40.0508 31.2807 40.1221 31.2091C40.1946 31.1375 40.2506 31.0513 40.292 30.9513C40.3328 30.8512 40.3529 30.7414 40.3529 30.6206C40.3529 30.5005 40.3328 30.3901 40.292 30.29C40.2506 30.1899 40.1946 30.1038 40.1221 30.0322C40.0508 29.9606 39.9655 29.9048 39.8675 29.8648C39.77 29.8253 39.664 29.8053 39.5501 29.8053ZM39.5501 29.2818C39.7475 29.2818 39.9302 29.3158 40.0983 29.3843C40.2664 29.4523 40.412 29.5463 40.5344 29.6658C40.6575 29.7853 40.7531 29.9267 40.8225 30.0892C40.892 30.2524 40.9267 30.4296 40.9267 30.6206C40.9267 30.8117 40.892 30.9889 40.8225 31.152C40.7531 31.3146 40.6575 31.4566 40.5344 31.5761C40.412 31.6956 40.2664 31.789 40.0983 31.8576C39.9302 31.9255 39.7475 31.9595 39.5501 31.9595C39.3528 31.9595 39.1701 31.9255 39.002 31.8576C38.8338 31.789 38.6895 31.6956 38.5677 31.5761C38.4458 31.4566 38.3502 31.3146 38.2808 31.152C38.2113 30.9889 38.1766 30.8117 38.1766 30.6206C38.1766 30.4296 38.2113 30.2524 38.2808 30.0892C38.3502 29.9267 38.4458 29.7853 38.5677 29.6658C38.6895 29.5463 38.8338 29.4523 39.002 29.3843C39.1701 29.3158 39.3528 29.2818 39.5501 29.2818ZM25.1657 30.6121C25.1657 30.1669 25.4586 29.8011 25.9374 29.8011C26.3948 29.8011 26.7036 30.1511 26.7036 30.6121C26.7036 31.0732 26.3948 31.4226 25.9374 31.4226C25.4586 31.4226 25.1657 31.0574 25.1657 30.6121ZM27.225 30.6121V29.3455H26.672V29.6531C26.4959 29.425 26.2304 29.2818 25.8686 29.2818C25.1553 29.2818 24.5968 29.8381 24.5968 30.6121C24.5968 31.3856 25.1553 31.9425 25.8686 31.9425C26.2304 31.9425 26.4959 31.7993 26.672 31.5712V31.8788H27.225V30.6121ZM24.1071 31.8788V30.2888C24.1071 29.6901 23.7239 29.2873 23.1069 29.2818C22.7823 29.2763 22.4467 29.377 22.2128 29.7325C22.0373 29.4517 21.7602 29.2818 21.3716 29.2818C21.1005 29.2818 20.8344 29.3613 20.6267 29.6579V29.3455H20.0736V31.8788H20.6322V30.4744C20.6322 30.0346 20.877 29.8011 21.2547 29.8011C21.6219 29.8011 21.8083 30.0395 21.8083 30.469V31.8788H22.3669V30.4744C22.3669 30.0346 22.6227 29.8011 22.9894 29.8011C23.3676 29.8011 23.5485 30.0395 23.5485 30.469V31.8788H24.1071Z" fill="#110F0D"/>
</g>
<defs>
<clipPath id="clip0_180_768">
<rect width="31" height="24" fill="white" transform="translate(15 8)"/>
</clipPath>
</defs>
</svg>
